<svg xmlns="http://www.w3.org/2000/svg" viewBox="0 0 280 280" fill="none" shape-rendering="auto"><metadata xmlns:rdf="http://www.w3.org/1999/02/22-rdf-syntax-ns#" xmlns:xsi="http://www.w3.org/2001/XMLSchema-instance" xmlns:dc="http://purl.org/dc/elements/1.1/" xmlns:dcterms="http://purl.org/dc/terms/"><rdf:RDF><rdf:Description><dc:title>Avataaars</dc:title><dc:creator>Pablo Stanley</dc:creator><dc:source xsi:type="dcterms:URI">https://avataaars.com/</dc:source><dcterms:license xsi:type="dcterms:URI">https://avataaars.com/</dcterms:license><dc:rights>Remix of „Avataaars” (https://avataaars.com/) by „Pablo Stanley”, licensed under „Free for personal and commercial use” (https://avataaars.com/)</dc:rights></rdf:Description></rdf:RDF></metadata><mask id="viewboxMask"><rect width="280" height="280" rx="0" ry="0" x="0" y="0" fill="#fff" /></mask><g mask="url(#viewboxMask)"><g transform="translate(8)"><path d="M132 36a56 56 0 0 0-56 56v6.17A12 12 0 0 0 66 110v14a12 12 0 0 0 10.3 11.88 56.04 56.04 0 0 0 31.7 44.73v18.4h-4a72 72 0 0 0-72 72v9h200v-9a72 72 0 0 0-72-72h-4v-18.39a56.04 56.04 0 0 0 31.7-44.73A12 12 0 0 0 198 124v-14a12 12 0 0 0-10-11.83V92a56 56 0 0 0-56-56Z" fill="#f8d25c"/><path d="M108 180.61v8a55.79 55.79 0 0 0 24 5.39c8.59 0 16.73-1.93 24-5.39v-8a55.79 55.79 0 0 1-24 5.39 55.79 55.79 0 0 1-24-5.39Z" fill="#000" fill-opacity=".1"/><g transform="translate(0 170)"><path d="M132.5 65.83c27.34 0 49.5-13.2 49.5-29.48 0-1.37-.16-2.7-.46-4.02A72.03 72.03 0 0 1 232 101.05V110H32v-8.95A72.03 72.03 0 0 1 83.53 32a18 18 0 0 0-.53 4.35c0 16.28 22.16 29.48 49.5 29.48Z" fill="#5199e4"/></g><g transform="translate(78 134)"><path fill-rule="evenodd" clip-rule="evenodd" d="M35.12 15.13a19 19 0 0 0 37.77-.09c.08-.77-.77-2.04-1.85-2.04H37.1C36 13 35 14.18 35.12 15.13Z" fill="#000" fill-opacity=".7"/><path d="M70 13H39a5 5 0 0 0 5 5h21a5 5 0 0 0 5-5Z" fill="#fff"/><path d="M66.7 27.14A10.96 10.96 0 0 0 54 25.2a10.95 10.95 0 0 0-12.7 1.94A18.93 18.93 0 0 0 54 32c4.88 0 9.33-1.84 12.7-4.86Z" fill="#FF4F6D"/></g><g transform="translate(104 122)"><path fill-rule="evenodd" clip-rule="evenodd" d="M16 8c0 4.42 5.37 8 12 8s12-3.58 12-8" fill="#000" fill-opacity=".16"/></g><g transform="translate(76 90)"><path d="M16.16 22.45c1.85-3.8 6-6.45 10.84-6.45 4.81 0 8.96 2.63 10.82 6.4.55 1.13-.24 2.05-1.03 1.37a15.05 15.05 0 0 0-9.8-3.43c-3.73 0-7.12 1.24-9.55 3.23-.9.73-1.82-.01-1.28-1.12ZM74.16 22.45c1.85-3.8 6-6.45 10.84-6.45 4.81 0 8.96 2.63 10.82 6.4.55 1.13-.24 2.05-1.03 1.37a15.05 15.05 0 0 0-9.8-3.43c-3.74 0-7.13 1.24-9.56 3.23-.9.73-1.82-.01-1.28-1.12Z" fill-rule="evenodd" clip-rule="evenodd" fill="#000" fill-opacity=".6"/></g><g transform="translate(76 82)"><path d="M15.98 17.13C17.48 7.6 30.06 1.1 39.16 5.3a2 2 0 1 0 1.68-3.63c-11.5-5.3-26.9 2.66-28.82 14.84a2 2 0 0 0 3.96.63ZM96.02 17.13C94.52 7.6 81.94 1.1 72.84 5.3a2 2 0 1 1-1.68-3.63c11.5-5.3 26.9 2.66 28.82 14.84a2 2 0 0 1-3.96.63Z" fill="#000" fill-opacity=".6"/></g><g transform="translate(-1)"><path fill-rule="evenodd" clip-rule="evenodd" d="M66 77.34c-.66 3.79-1 7.68-1 11.66v48c0 .97.02 1.94.06 2.9L65 142c.14 3.68-1.86 11.8-4.34 21.9-3.88 15.77-8.94 36.4-8.94 52.55 0 13.01 1.98 22.84 3.89 32.3 1.97 9.78 3.86 19.16 3.39 31.25h47s-.95-13.2-2.47-26.36c10.05 10.2 22.82 16.84 39.05 16.84 70.55 0 77.62-53.83 77.62-65.24 0-6.04-4.32-10.88-8.39-15.44-3.6-4.05-7.02-7.87-7-12.1 0-4.35 1.02-7.39 2.07-10.52 1.12-3.33 2.27-6.75 2.27-11.96 0-5.82-1.43-7.5-2.9-9.25a10.7 10.7 0 0 1-2.8-5.62c-.88-4.54-1.86-14.32-2.45-20.77V89A68 68 0 0 0 66.04 77.08L66 77v.34ZM133 53c-30.1 0-55 24.4-55 54.5v23c0 30.1 24.9 54.5 55 54.5s55-24.4 55-54.5v-23c0-30.1-24.9-54.5-55-54.5Z" fill="#ffdeb5"/><path d="M193.93 104.96A61.4 61.4 0 0 0 195 93.5c0-33.97-27.76-61.5-62-61.5-34.24 0-62 27.53-62 61.5 0 3.92.37 7.75 1.07 11.46a61 61 0 0 1 121.86 0Z" fill="#fff" fill-opacity=".5"/><path d="M78.07 104.69c-.05.93-.07 1.87-.07 2.81v23c0 30.1 24.9 54.5 55 54.5s55-24.4 55-54.5v-23c0-.94-.02-1.88-.07-2.81.7 3.5 1.07 7.1 1.07 10.81v23a54.5 54.5 0 0 1-54.5 54.5h-3A54.5 54.5 0 0 1 77 138.5v-23c0-3.7.37-7.32 1.07-10.81ZM187.05 194.14c-4.39 6.9-17.9 13.66-34.65 16.62-16.74 2.95-31.75 1.22-38.23-3.76.02.26.05.52.1.78 1.7 9.69 19.42 14.67 39.57 11.12 20.15-3.56 35.1-14.3 33.38-23.99-.04-.26-.1-.51-.17-.77ZM198.66 209.49c-2.64 9.6-14.87 20.2-31.56 26.28-16.68 6.07-32.87 5.8-41.06.15.1.34.2.67.32 1 4.53 12.44 24.47 16.6 44.55 9.3 20.07-7.31 32.67-23.32 28.15-35.75-.12-.34-.26-.66-.4-.98Z" opacity=".9" fill="#000" fill-opacity=".16"/></g><g transform="translate(49 72)"></g><g transform="translate(62 42)"></g></g></g></svg>